# xmcd
# 
# Track frame offsets:
#     187
#     19935
#     40227
#     57732
#     80192
#     103242
#     119702
#     134547
#     148757
#     162382
# 
# Disc length: 2483
# 
# Revision: 2
# Processed by: cddbd v1.5.2PL0 Copyright (c) Steve Scherf et al.
# Submitted via: fre:ac v1.1rc1
# 
DISCID=a009b10a
DTITLE=阿川泰子 - Tea for Two
DYEAR=1997
DGENRE=J-Jazz
TTITLE0=Manhattan
TTITLE1=Somewhere
TTITLE2=Tea For Two (二人でお茶を)
TTITLE3=They Say It's Wonderful
TTITLE4=The Impossible Dream (見果てぬ夢)
TTITLE5=Begin The Beguine
TTITLE6=Little Prince (星の王子様)
TTITLE7=True Love
TTITLE8=Makin' Whoopee
TTITLE9=I've Grown Accustomed To His Face
EXTD=YEAR: 1997
EXTT0=
EXTT1=
EXTT2=
EXTT3=
EXTT4=
EXTT5=
EXTT6=
EXTT7=
EXTT8=
EXTT9=
PLAYORDER=
